<?xml version="1.0" encoding="UTF-8"?>
<!--Generator: Apple Native CoreSVG 326-->
<!DOCTYPE svg
PUBLIC "-//W3C//DTD SVG 1.1//EN"
       "http://www.w3.org/Graphics/SVG/1.1/DTD/svg11.dtd">
<svg height="34.0918" opacity="0" width="23.4668" x="0" y="0" version="1.1" xmlns="http://www.w3.org/2000/svg" xmlns:xlink="http://www.w3.org/1999/xlink"  viewBox="0 0 15.832 33.5273">
 <g>
  <path d="M7.75781 33.4922C12.0234 33.4922 15.4805 30.0234 15.4805 25.7578C15.4805 23.5078 14.5547 21.5156 12.7383 19.9219C12.3867 19.6172 12.3047 19.418 12.3047 18.9258L12.3047 4.93359C12.3047 2.00391 10.4531 0 7.75781 0C5.03906 0 3.17578 2.00391 3.17578 4.93359L3.17578 18.9258C3.17578 19.418 3.10547 19.6172 2.74219 19.9219C0.925781 21.5156 0 23.5078 0 25.7578C0 30.0234 3.45703 33.4922 7.75781 33.4922ZM7.75781 31.6172C4.52344 31.6172 1.89844 28.9805 1.89844 25.7578C1.89844 23.8594 2.76562 22.1367 4.39453 21.0352C4.88672 20.6953 5.07422 20.3555 5.07422 19.7227L5.07422 5.00391C5.07422 3.16406 6.16406 1.89844 7.75781 1.89844C9.31641 1.89844 10.4062 3.16406 10.4062 5.00391L10.4062 19.7227C10.4062 20.3555 10.5938 20.6953 11.0859 21.0352C12.7148 22.1367 13.582 23.8594 13.582 25.7578C13.582 28.9805 10.9688 31.6172 7.75781 31.6172Z" fill="black" fill-opacity="0.85"/>
  <path d="M7.74609 29.5781C9.85547 29.5781 11.5547 27.8789 11.5547 25.7461C11.5547 24.2695 10.7227 23.0508 9.50391 22.3945C9 22.125 8.83594 21.9258 8.83594 21.1641L8.83594 16.1953C8.83594 15.5859 8.34375 15.1055 7.74609 15.1055C7.13672 15.1055 6.65625 15.5859 6.65625 16.1953L6.65625 21.1641C6.65625 21.9258 6.48047 22.125 5.97656 22.3945C4.75781 23.0508 3.92578 24.2695 3.92578 25.7461C3.92578 27.8789 5.625 29.5781 7.74609 29.5781ZM7.74609 13.5586C8.34375 13.5586 8.83594 13.0664 8.83594 12.4688C8.83594 11.8594 8.34375 11.3789 7.74609 11.3789C7.13672 11.3789 6.65625 11.8594 6.65625 12.4688C6.65625 13.0664 7.13672 13.5586 7.74609 13.5586ZM7.74609 9.82031C8.34375 9.82031 8.83594 9.33984 8.83594 8.73047C8.83594 8.13281 8.34375 7.64062 7.74609 7.64062C7.13672 7.64062 6.65625 8.13281 6.65625 8.73047C6.65625 9.33984 7.13672 9.82031 7.74609 9.82031ZM7.74609 6.09375C8.34375 6.09375 8.83594 5.61328 8.83594 5.00391C8.83594 4.40625 8.34375 3.92578 7.74609 3.92578C7.13672 3.92578 6.65625 4.40625 6.65625 5.00391C6.65625 5.61328 7.13672 6.09375 7.74609 6.09375Z" fill="black" fill-opacity="0.85"/>
 </g>
</svg>
